<?xml version="1.0" encoding="iso-8859-1"?>
<!-- Generator: Adobe Illustrator 19.0.0, SVG Export Plug-In . SVG Version: 6.00 Build 0)  -->
<svg xmlns="http://www.w3.org/2000/svg" xmlns:xlink="http://www.w3.org/1999/xlink" version="1.1" id="Layer_1" x="0px" y="0px" viewBox="0 0 512 512" style="enable-background:new 0 0 512 512;" xml:space="preserve">
<path style="fill:#EF584F;" d="M289.061,10.039c-43.384,0-79.131,32.609-84.124,74.65c-4.993-42.041-40.739-74.65-84.123-74.65  c-46.803,0-84.744,37.941-84.744,84.744c0,89.137,168.859,188.318,168.859,188.318h0.017c0,0,168.859-99.181,168.859-188.318  C373.805,47.98,335.864,10.039,289.061,10.039z"/>
<path style="fill:#EF717A;" d="M410.977,99.297c-33.254,0-60.653,24.995-64.48,57.218c-3.827-32.224-31.227-57.218-64.48-57.218  c-35.873,0-64.955,29.082-64.955,64.955c0,68.323,129.428,144.344,129.428,144.344h0.013c0,0,129.428-76.021,129.428-144.344  C475.932,128.378,446.85,99.297,410.977,99.297z"/>
<g>
	<path style="fill:#231F20;" d="M86.295,95.844c-0.02-0.38-0.029-0.735-0.029-1.062c0-5.545-4.495-10.039-10.039-10.039   c-5.545,0-10.039,4.495-10.039,10.039c0,0.656,0.017,1.365,0.058,2.127c0.285,5.355,4.716,9.507,10.016,9.507   c0.18,0,0.36-0.005,0.542-0.015C82.34,106.108,86.59,101.381,86.295,95.844z"/>
	<path style="fill:#231F20;" d="M152.252,183.477c-24.665-21.087-42.869-40.694-54.106-58.275   c-2.987-4.672-9.193-6.039-13.866-3.052c-4.671,2.986-6.039,9.194-3.052,13.866c12.301,19.246,31.808,40.35,57.976,62.722   c1.891,1.617,4.21,2.408,6.518,2.408c2.833,0,5.65-1.193,7.636-3.516C156.962,193.417,156.466,187.08,152.252,183.477z"/>
	<path style="fill:#231F20;" d="M410.977,89.258c-9.537,0-18.695,1.798-27.138,5.08C383.597,42.279,341.176,0,289.061,0   c-36.269,0-68.234,20.51-84.123,51.078C189.048,20.51,157.082,0,120.813,0C68.55,0,26.03,42.52,26.03,94.783   c0,85.629,138.917,175.586,168.533,193.788c-0.126,8.481,0.844,24.158,7.584,43.517c5.423,15.577,15.408,35.579,33.736,56.605   c-15.644,3.627-27.342,17.668-27.342,34.398c0,19.474,15.844,35.318,35.318,35.318c2.949,0,6.303-0.705,9.863-1.886l-28.461,39.577   c-3.238,4.502-2.213,10.774,2.289,14.012c1.774,1.276,3.823,1.889,5.853,1.889c3.121,0,6.197-1.452,8.159-4.179l48.811-67.873   l48.811,67.873c1.962,2.728,5.038,4.179,8.159,4.179c2.03,0,4.079-0.614,5.853-1.889c4.502-3.238,5.527-9.51,2.289-14.012   l-28.461-39.577c3.56,1.182,6.914,1.886,9.863,1.886c19.474,0,35.318-15.844,35.318-35.318c0-19.387-15.702-35.17-35.057-35.312   c7.777-12.956,12.403-25.578,15.149-36.136c4.21-16.19,4.726-29.903,4.562-37.599c10.604-6.595,35.577-22.825,60.869-44.355   c45.284-38.551,68.245-74.025,68.245-105.438C485.971,122.9,452.329,89.258,410.977,89.258z M46.109,94.783   c0-41.193,33.513-74.705,74.705-74.705c37.821,0,69.7,28.285,74.156,65.795c0.6,5.051,4.883,8.856,9.969,8.856   s9.37-3.805,9.969-8.856c4.454-37.509,36.335-65.795,74.155-65.795c41.192,0,74.705,33.512,74.705,74.705   c0,3.951-0.396,8.017-1.175,12.188c-6.347,5.361-11.806,11.759-16.094,18.965c-13.152-22.107-37.287-36.677-64.481-36.677   c-41.351,0-74.994,33.642-74.994,74.994c0,24.003,13.423,50.381,39.952,78.687c-18.635,13.606-34.343,23.647-42.038,28.416   c-12.375-7.668-45.467-28.965-78.14-56.809C74.01,169.561,46.109,128.147,46.109,94.783z M214.64,288.981   c8.154-4.991,25.816-16.169,46.794-31.635c4.358,4.079,8.959,8.192,13.836,12.343c25.818,21.979,51.299,38.432,61.507,44.753   c0.133,6.348-0.277,18.535-4.115,32.914c-6.841,25.627-21.111,46.81-42.424,63.081c-1.17-0.851-2.432-1.756-3.77-2.694   c-31.912-23.478-54.267-51.335-64.945-81.089C215.348,309.451,214.555,295.719,214.64,288.981z M228.62,423.091   c0-8.404,6.837-15.24,15.24-15.24c4.787,0,17.357,6.968,29.451,15.24c-12.094,8.271-24.664,15.239-29.451,15.239   C235.456,438.33,228.62,431.494,228.62,423.091z M352.123,423.091c0,8.403-6.837,15.239-15.239,15.239   c-4.788,0-17.36-6.969-29.455-15.243c12.087-8.269,24.656-15.236,29.455-15.236C345.287,407.851,352.123,414.687,352.123,423.091z    M346.494,296.882c-37.568-23.104-119.393-83.642-119.393-132.63c0-30.28,24.635-54.915,54.915-54.915   c27.802,0,51.237,20.791,54.511,48.363c0.6,5.051,4.882,8.856,9.969,8.856c5.087,0,9.37-3.805,9.969-8.856   c3.275-27.571,26.708-48.363,54.511-48.363c30.28,0,54.915,24.635,54.915,54.915C465.892,213.186,384.058,273.761,346.494,296.882z   "/>
	<path style="fill:#231F20;" d="M419.672,197.176c-4.141-3.688-10.486-3.324-14.174,0.816c-7.351,8.248-16.374,16.94-26.818,25.831   c-5.159,4.392-10.686,8.85-16.426,13.251c-4.4,3.373-5.232,9.675-1.86,14.076c1.977,2.578,4.958,3.932,7.975,3.932   c2.131,0,4.279-0.676,6.101-2.072c6.011-4.608,11.807-9.284,17.226-13.897c11.144-9.487,20.831-18.827,28.792-27.76   C424.177,207.211,423.811,200.865,419.672,197.176z"/>
	<path style="fill:#231F20;" d="M435.775,154.212c-5.545,0-10.039,4.495-10.039,10.039c0,0.154-0.006,0.313-0.018,0.478   c-0.379,5.532,3.798,10.323,9.328,10.703c0.234,0.016,0.466,0.024,0.697,0.024c5.231,0,9.642-4.056,10.005-9.354   c0.043-0.636,0.064-1.254,0.064-1.85C445.814,158.707,441.32,154.212,435.775,154.212z"/>
</g>
<g>
</g>
<g>
</g>
<g>
</g>
<g>
</g>
<g>
</g>
<g>
</g>
<g>
</g>
<g>
</g>
<g>
</g>
<g>
</g>
<g>
</g>
<g>
</g>
<g>
</g>
<g>
</g>
<g>
</g>
</svg>
